Coordinates
version=1
nRows=24
nColumns=22
inDegrees=yes

Units are S.I. units (second, meters, Newtons, ...)
If the header above contains a line with 'inDegrees', this indicates whether rotational values are in degrees (yes) or radians (no).

endheader
time	pelvis_tilt	pelvis_list	pelvis_rotation	pelvis_tx	pelvis_ty	pelvis_tz	hip_flexion_r	hip_adduction_r	hip_rotation_r	knee_angle_r	ankle_angle_r	subtalar_angle_r	hip_flexion_l	hip_adduction_l	hip_rotation_l	knee_angle_l	ankle_angle_l	subtalar_angle_l	lumbar_extension	lumbar_bending	lumbar_rotation
      0.01000000	     -1.57463267	     -3.97059045	      2.38836229	      1.04107213	      1.01311310	      0.19899579	      2.31713153	      3.65025536	     -7.30888853	    -14.36779809	     10.01589744	     -0.27891771	     -1.47326386	     -6.94409925	     -7.07262051	     -8.15501375	     10.73607834	      1.50437106	     -2.45328827	      1.32867371	      0.30605170
      0.02000000	     -1.56698177	     -3.96322069	      2.38215082	      1.04085674	      1.01312251	      0.19932069	      2.35204330	      3.65974437	     -7.31219158	    -14.42063570	     10.00880358	     -0.28135207	     -1.45736224	     -6.95777875	     -7.07273017	     -8.17591784	     10.72274214	      1.51621295	     -2.51040153	      1.34756001	      0.29177680
      0.03000000	     -1.56514399	     -3.95201122	      2.37838519	      1.04061677	      1.01312454	      0.19965884	      2.39770744	      3.66458189	     -7.32992842	    -14.47983437	     10.01093999	     -0.29024905	     -1.42905480	     -6.96879282	     -7.07350621	     -8.20404808	     10.70721922	      1.53070552	     -2.56485229	      1.36065711	      0.28427576
      0.04000000	     -1.62988752	     -3.92314685	      2.38997564	      1.04034051	      1.01302412	      0.19998556	      2.52774170	      3.64418205	     -7.39128752	    -14.56430495	     10.04456085	     -0.35354460	     -1.30877619	     -6.96102519	     -7.06136973	     -8.26139947	     10.71096350	      1.60066122	     -2.54244385	      1.34854346	      0.25027787
      0.05000000	     -1.62697437	     -3.91204828	      2.39182570	      1.04007293	      1.01304260	      0.20031689	      2.56843227	      3.65063155	     -7.39088270	    -14.61427271	     10.03930023	     -0.36030256	     -1.27778507	     -6.97214320	     -7.04903449	     -8.29095757	     10.68869869	      1.60900595	     -2.60229513	      1.36587153	      0.24345085
      0.06000000	     -1.66771429	     -3.89832676	      2.41787696	      1.03978555	      1.01300143	      0.20059687	      2.66544092	      3.64690157	     -7.44921374	    -14.68178819	     10.05358631	     -0.40153268	     -1.17905615	     -6.97959542	     -7.02556730	     -8.34754493	     10.66268368	      1.64464895	     -2.61008176	      1.38151502	      0.20806669
      0.07000000	     -1.66593690	     -3.88601199	      2.43242850	      1.03951529	      1.01303613	      0.20089047	      2.70848352	      3.65249404	     -7.42119224	    -14.73628510	     10.04405046	     -0.40788754	     -1.14939810	     -6.98752948	     -7.00354047	     -8.36666336	     10.64799330	      1.65294787	     -2.66769337	      1.40147044	      0.17841513
      0.08000000	     -1.66523492	     -3.87663065	      2.45681946	      1.03924404	      1.01307953	      0.20114024	      2.75398787	      3.65900625	     -7.40323275	    -14.79337078	     10.03846091	     -0.41649394	     -1.11192768	     -6.99663802	     -6.97719010	     -8.39444139	     10.62168937	      1.66570940	     -2.72312967	      1.43081500	      0.14874030
      0.09000000	     -1.70312293	     -3.87716981	      2.51466573	      1.03896092	      1.01307154	      0.20132689	      2.83990622	      3.67024023	     -7.44403814	    -14.84654558	     10.03951404	     -0.45174677	     -1.01603953	     -7.01467816	     -6.89935581	     -8.43969440	     10.58164415	      1.71761111	     -2.72968735	      1.47381132	      0.08672119
      0.10000000	     -1.69836577	     -3.86483227	      2.53979817	      1.03869298	      1.01312455	      0.20157913	      2.88239514	      3.67455757	     -7.41560395	    -14.90627215	     10.02832685	     -0.45859519	     -0.99224504	     -7.02024229	     -6.87808463	     -8.45046002	     10.56753832	      1.73104255	     -2.78959249	      1.50162292	      0.05226719
      0.11000000	     -1.70569182	     -3.85843347	      2.59230831	      1.03840278	      1.01315600	      0.20181927	      2.93699230	      3.68350111	     -7.44053116	    -14.96265446	     10.02716672	     -0.48496659	     -0.94260127	     -7.03431084	     -6.81814357	     -8.47136568	     10.52657898	      1.78410510	     -2.83356994	      1.53113504	      0.01594745
      0.12000000	     -1.70478243	     -3.84305968	      2.63100073	      1.03809483	      1.01319270	      0.20209393	      2.98706066	      3.68388361	     -7.45394311	    -15.02485560	     10.02297185	     -0.50721373	     -0.90819632	     -7.03960969	     -6.77826488	     -8.48544933	     10.49760141	      1.82970252	     -2.89016657	      1.55289990	     -0.00491492
      0.13000000	     -1.70788435	     -3.82433030	      2.66951920	      1.03775699	      1.01322252	      0.20242632	      3.04563175	      3.68326874	     -7.48239773	    -15.09059754	     10.02408688	     -0.53591223	     -0.87082079	     -7.04538453	     -6.73631932	     -8.49272954	     10.45818759	      1.88908403	     -2.94609092	      1.56152163	     -0.02176220
      0.14000000	     -1.71456804	     -3.80036262	      2.70420045	      1.03738761	      1.01324493	      0.20278435	      3.11320914	      3.67756608	     -7.50983165	    -15.16281730	     10.02563568	     -0.56717039	     -0.82944776	     -7.04675034	     -6.69651148	     -8.49925765	     10.41756544	      1.95398017	     -3.00182271	      1.56457463	     -0.03023918
      0.15000000	     -1.70842040	     -3.78266583	      2.73299428	      1.03699657	      1.01328638	      0.20317838	      3.16569490	      3.68403926	     -7.49894022	    -15.22988950	     10.01772248	     -0.57537378	     -0.80290593	     -7.05774077	     -6.67600727	     -8.50239263	     10.39106325	      1.97367368	     -3.07432978	      1.57578296	     -0.03507812
      0.16000000	     -1.75007019	     -3.73463936	      2.77402588	      1.03655157	      1.01326460	      0.20354304	      3.28829117	      3.64782023	     -7.55439726	    -15.32926802	     10.03497692	     -0.63999928	     -0.71879625	     -7.03191077	     -6.60942566	     -8.50884099	     10.32505188	      2.10070704	     -3.09771901	      1.55583392	     -0.06190890
      0.17000000	     -1.76911542	     -3.70885398	      2.80379392	      1.03609469	      1.01327591	      0.20395178	      3.38372154	      3.64087786	     -7.58076109	    -15.41775263	     10.03572266	     -0.67279809	     -0.65951546	     -7.03428865	     -6.57249474	     -8.51482917	     10.26880876	      2.16505806	     -3.14825349	      1.56035218	     -0.05461720
      0.18000000	     -1.79894786	     -3.67070271	      2.84079128	      1.03560473	      1.01327412	      0.20434794	      3.49579160	      3.62012252	     -7.60013184	    -15.51490397	     10.03971655	     -0.71231156	     -0.58244770	     -7.02163135	     -6.51953188	     -8.52681797	     10.21018030	      2.23329395	     -3.18990500	      1.55561775	     -0.06959455
      0.19000000	     -1.83679544	     -3.63209310	      2.88112874	      1.03508666	      1.01326297	      0.20473667	      3.62117378	      3.59763051	     -7.62240774	    -15.61807493	     10.04374434	     -0.75647523	     -0.49131228	     -7.00763766	     -6.46497194	     -8.54399871	     10.15001073	      2.29875794	     -3.22470040	      1.55514878	     -0.08857265
      0.20000000	     -1.88020929	     -3.59190003	      2.92712398	      1.03452643	      1.01324478	      0.20515254	      3.75766096	      3.57569281	     -7.64360543	    -15.72579866	     10.04670596	     -0.80683331	     -0.38554634	     -6.99365135	     -6.40504590	     -8.56916971	     10.09447796	      2.35975533	     -3.25767249	      1.54858051	     -0.11873282
      0.21000000	     -1.92502082	     -3.54971845	      2.98280510	      1.03392104	      1.01322444	      0.20557205	      3.90058203	      3.55164372	     -7.67390031	    -15.83808779	     10.04981108	     -0.86565420	     -0.26743640	     -6.97806937	     -6.33734149	     -8.60530369	     10.03975629	      2.41725539	     -3.29471932	      1.54207505	     -0.15592488
      0.22000000	     -1.96089936	     -3.50650663	      3.05033815	      1.03325724	      1.01321483	      0.20600650	      4.03833978	      3.52778990	     -7.71572578	    -15.95306248	     10.05164217	     -0.92987087	     -0.14461035	     -6.96371128	     -6.25917576	     -8.65617691	      9.98492839	      2.46937508	     -3.35139376	      1.53474767	     -0.19506337
      0.23000000	     -1.98994019	     -3.46286888	      3.12837391	      1.03254347	      1.01321134	      0.20649299	      4.17407383	      3.50710014	     -7.77141916	    -16.07104556	     10.05303225	     -1.00460524	     -0.01774319	     -6.95374166	     -6.16837568	     -8.71885257	      9.93414629	      2.52040308	     -3.42272348	      1.51843802	     -0.24598484
      0.24000000	     -2.01216912	     -3.42037745	      3.21763725	      1.03178049	      1.01321590	      0.20698917	      4.30647779	      3.48856707	     -7.83894146	    -16.19094116	     10.05135913	     -1.08931558	      0.11379994	     -6.94609521	     -6.06819506	     -8.79313947	      9.88507408	      2.57079890	     -3.50988398	      1.50516421	     -0.30001848
